<?xml version="1.0" encoding="utf-8"?>
<!-- Generator: Adobe Illustrator 21.0.0, SVG Export Plug-In . SVG Version: 6.00 Build 0)  -->
<svg version="1.1" id="Ebene_1" xmlns="http://www.w3.org/2000/svg" xmlns:xlink="http://www.w3.org/1999/xlink" x="0px" y="0px"
	 viewBox="0 0 42 47" style="enable-background:new 0 0 42 47;" xml:space="preserve">
<style type="text/css">
	.st0{fill:#FFFFFF;}
	.st1{fill:none;stroke:#F05A28;stroke-width:1.4015;stroke-linecap:round;}
	.st2{opacity:0.4;fill:#F05A28;enable-background:new    ;}
	.st3{fill:none;stroke:#F15B29;stroke-width:1.4015;}
	.st4{fill:none;stroke:#F05A28;stroke-width:1.4015;}
	.st5{fill:#FFFFFF;stroke:#F05A28;stroke-width:1.4015;}
	.st6{fill:#FFFFFF;stroke:#A30C5B;stroke-width:1.4015;}
	.st7{fill:none;stroke:#A30C5B;stroke-width:1.4015;}
</style>
<path class="st0" d="M30.1,45.7H2.9c-1,0-1.8-0.8-1.8-1.8V2.6c0-1,0.8-1.8,1.8-1.8h27.2c1,0,1.8,0.8,1.8,1.8v41.2
	C31.9,44.9,31.1,45.7,30.1,45.7z"/>
<title>5049AAA1-671E-4E45-B631-7F08DA6B5CC0</title>
<desc>Created with sketchtool.</desc>
<g id="Page-1">
	<g id="HOME-open-ID-Pull-down---iPhone8" transform="translate(-27.000000, -451.000000)">
		<g id="Manage-Attestations" transform="translate(9.000000, 444.000000)">
			<g id="Icon_x2F_Claim-attested" transform="translate(19.000000, 6.000000)">
				<g transform="translate(0.000000, 1.757812)">
					<path id="Path" class="st1" d="M30.9,40v3.2c0,1-0.8,1.8-1.8,1.8H1.8c-1,0-1.8-0.8-1.8-1.8V1.8C0,0.8,0.8,0,1.8,0h27.4
						c1,0,1.8,0.8,1.8,1.8v14.5"/>
					<rect id="Rectangle" x="3.2" y="6.7" class="st2" width="15.1" height="5.6"/>
					<path id="Path_1_" class="st3" d="M8.1,9.5h7.7"/>
					<ellipse id="Oval" class="st3" cx="5.9" cy="9.3" rx="1" ry="1"/>
					<path id="Path_2_" class="st4" d="M23.9,7.3c-1.8,0-3.4,1.6-3.4,3.5c0,0.1,0,0.2,0,0.4c0,0.4,0.3,0.7,0.7,0.7h5.3
						c0.4,0,0.7-0.3,0.7-0.7V11c0-1-0.3-1.8-0.9-2.5"/>
					<rect id="Rectangle_1_" x="3.2" y="15.8" class="st2" width="24.6" height="5.6"/>
					<path id="Path_3_" class="st3" d="M8.1,18.6h17.5"/>
					<ellipse id="Oval_1_" class="st3" cx="5.9" cy="18.4" rx="1" ry="1"/>
					<rect id="Rectangle_2_" x="3.2" y="24.9" class="st2" width="24.6" height="5.6"/>
					<path id="Path_4_" class="st3" d="M8.1,27.6h11.6"/>
					<ellipse id="Oval_2_" class="st3" cx="5.9" cy="27.5" rx="1" ry="1"/>
					<rect id="Rectangle_3_" x="3.2" y="34" class="st2" width="24.6" height="5.6"/>
					<path id="Path_5_" class="st3" d="M8.1,36.7h17.5"/>
					<ellipse id="Oval_3_" class="st3" cx="5.9" cy="36.6" rx="1" ry="1"/>
					<ellipse id="Oval_4_" class="st5" cx="23.9" cy="5.5" rx="2.1" ry="2.1"/>
					<g id="Group" transform="translate(22.374652, 19.270073)">
						<ellipse id="Oval_5_" class="st6" cx="8.5" cy="8.5" rx="8.4" ry="8.4"/>
						<path id="Path_6_" class="st7" d="M4.8,9.3l2.7,3.1c0.2,0.3,0.7,0.3,0.9,0l4.4-5.3c0.2-0.3,0.3-0.6,0.3-0.9
							c0-1.3-1.6-1.9-2.4-0.9L7.9,8.6L7,7.5c-0.8-1-2.5-0.4-2.5,0.9C4.5,8.7,4.6,9.1,4.8,9.3z"/>
					</g>
				</g>
			</g>
		</g>
	</g>
</g>
</svg>
