<?xml version="1.0" encoding="UTF-8"?>
<svg width="34px" height="45px" viewBox="0 0 34 45" version="1.1" xmlns="http://www.w3.org/2000/svg" xmlns:xlink="http://www.w3.org/1999/xlink">
    <!-- Generator: sketchtool 52.5 (67469) - http://www.bohemiancoding.com/sketch -->
    <title>E08EEBF8-1E6B-40C6-8F00-4DC674082761</title>
    <desc>Created with sketchtool.</desc>
    <g id="Page-1" stroke="none" stroke-width="1" fill="none" fill-rule="evenodd">
        <g id="HOME-open-ID-Pull-down---iPhone8" transform="translate(-23.000000, -86.000000)">
            <g id="Body" transform="translate(7.000000, 79.000000)">
                <g id="Manage-Claims">
                    <g id="Icon/Claim" transform="translate(11.000000, 7.000000)">
                        <g id="Icon/claim" transform="translate(5.976562, 0.000000)">
                            <rect id="Rectangle" fill="#FFFFFF" x="1.42857143" y="4.64285714" width="26.4285714" height="38.9285714" rx="0.703125"></rect>
                            <path d="M27.6700515,17.1494459 C27.6700515,16.8001159 27.9517808,16.516928 28.2993115,16.516928 C28.6468422,16.516928 28.9285714,16.8001159 28.9285714,17.1494459 L28.9285714,42.7861873 C28.9285714,44.0050903 27.939759,45 26.7277076,45 L2.20086387,45 C0.988812467,45 0,44.0050903 0,42.7861873 L0,5.42809839 C0,4.20919541 0.988812467,3.21428571 2.20086387,3.21428571 L20.4511144,3.21428571 C20.7986451,3.21428571 21.0803743,3.49747363 21.0803743,3.84680362 C21.0803743,4.19613362 20.7986451,4.47932153 20.4511144,4.47932153 L2.20086387,4.47932153 C1.68415095,4.47932153 1.25851989,4.90757713 1.25851989,5.42809839 L1.25851989,42.7861873 C1.25851989,43.3067086 1.68415095,43.7349642 2.20086387,43.7349642 L26.7277076,43.7349642 C27.2444205,43.7349642 27.6700515,43.3067086 27.6700515,42.7861873 L27.6700515,17.1494459 Z" id="Path" fill="#F05A28"></path>
                            <g id="3.-Line" transform="translate(3.571429, 34.642857)" fill="#F05A28">
                                <rect id="Rectangle" fill-opacity="0.4" x="0.135043154" y="0.045572075" width="22.4433009" height="5.27472527"></rect>
                                <polygon id="Path" points="4.643742 3.29314803 4.643742 1.96929541 20.6746712 1.96929541 20.6746712 3.29314803"></polygon>
                                <path d="M2.63987585,3.60342599 C2.11923492,3.60342599 1.69742799,3.1680097 1.69742799,2.63122172 C1.69742799,2.09443374 2.11923492,1.65901745 2.63987585,1.65901745 C3.16051678,1.65901745 3.58232371,2.09443374 3.58232371,2.63122172 C3.58232371,3.1680097 3.16051678,3.60342599 2.63987585,3.60342599 Z M2.63987585,2.27957337 C2.45124633,2.27957337 2.29858783,2.4371573 2.29858783,2.63122172 C2.29858783,2.82528613 2.45124633,2.98287007 2.63987585,2.98287007 C2.82850536,2.98287007 2.98116386,2.82528613 2.98116386,2.63122172 C2.98116386,2.4371573 2.82850536,2.27957337 2.63987585,2.27957337 Z" id="Oval"></path>
                            </g>
                            <g id="2.-Line" transform="translate(3.571429, 26.071429)" fill="#F05A28">
                                <rect id="Rectangle" fill-opacity="0.4" x="0.135043154" y="0.045572075" width="22.4433009" height="5.27472527"></rect>
                                <polygon id="Path" points="4.643742 3.29314803 4.643742 1.96929541 20.6746712 1.96929541 20.6746712 3.29314803"></polygon>
                                <path d="M2.63987585,3.60342599 C2.11923492,3.60342599 1.69742799,3.1680097 1.69742799,2.63122172 C1.69742799,2.09443374 2.11923492,1.65901745 2.63987585,1.65901745 C3.16051678,1.65901745 3.58232371,2.09443374 3.58232371,2.63122172 C3.58232371,3.1680097 3.16051678,3.60342599 2.63987585,3.60342599 Z M2.63987585,2.27957337 C2.45124633,2.27957337 2.29858783,2.4371573 2.29858783,2.63122172 C2.29858783,2.82528613 2.45124633,2.98287007 2.63987585,2.98287007 C2.82850536,2.98287007 2.98116386,2.82528613 2.98116386,2.63122172 C2.98116386,2.4371573 2.82850536,2.27957337 2.63987585,2.27957337 Z" id="Oval"></path>
                            </g>
                            <g id="1.-Line" transform="translate(3.571429, 18.214286)" fill="#F05A28">
                                <rect id="Rectangle" fill-opacity="0.4" x="0.135043154" y="0.045572075" width="22.4433009" height="5.27472527"></rect>
                                <polygon id="Path" points="4.643742 3.29314803 4.643742 1.96929541 20.6746712 1.96929541 20.6746712 3.29314803"></polygon>
                                <path d="M2.63987585,3.60342599 C2.11923492,3.60342599 1.69742799,3.1680097 1.69742799,2.63122172 C1.69742799,2.09443374 2.11923492,1.65901745 2.63987585,1.65901745 C3.16051678,1.65901745 3.58232371,2.09443374 3.58232371,2.63122172 C3.58232371,3.1680097 3.16051678,3.60342599 2.63987585,3.60342599 Z M2.63987585,2.27957337 C2.45124633,2.27957337 2.29858783,2.4371573 2.29858783,2.63122172 C2.29858783,2.82528613 2.45124633,2.98287007 2.63987585,2.98287007 C2.82850536,2.98287007 2.98116386,2.82528613 2.98116386,2.63122172 C2.98116386,2.4371573 2.82850536,2.27957337 2.63987585,2.27957337 Z" id="Oval"></path>
                            </g>
                            <g id="short-Line" transform="translate(3.571429, 9.642857)" fill="#F05A28">
                                <rect id="Rectangle" fill-opacity="0.4" x="0.132469923" y="0.045572075" width="13.5141115" height="5.27472527"></rect>
                                <polygon id="Path" points="4.55525606 3.29314803 4.55525606 1.96929541 11.4957613 1.96929541 11.4957613 3.29314803"></polygon>
                                <path d="M2.58957334,3.60342599 C2.07885316,3.60342599 1.6650837,3.1680097 1.6650837,2.63122172 C1.6650837,2.09443374 2.07885316,1.65901745 2.58957334,1.65901745 C3.10029351,1.65901745 3.51406297,2.09443374 3.51406297,2.63122172 C3.51406297,3.1680097 3.10029351,3.60342599 2.58957334,3.60342599 Z M2.58957334,2.27957337 C2.40453813,2.27957337 2.25478852,2.4371573 2.25478852,2.63122172 C2.25478852,2.82528613 2.40453813,2.98287007 2.58957334,2.98287007 C2.77460854,2.98287007 2.92435815,2.82528613 2.92435815,2.63122172 C2.92435815,2.4371573 2.77460854,2.27957337 2.58957334,2.27957337 Z" id="Oval"></path>
                            </g>
                            <g id="Person" transform="translate(21.071429, 0.000000)">
                                <path d="M5.87104351,7.00086512 C5.89700356,7.000426 5.92298291,7.00020568 5.94897959,7.00020568 L5.95466912,7.00303693 C7.38210706,7.05302531 8.74449827,7.76172304 9.7102092,8.87188753 L9.75810551,8.89572193 C9.89285195,9.06402902 10.0192826,9.24127401 10.1365869,9.42663546 C10.7440354,10.3248096 11.1122449,11.4152453 11.1122449,12.5979021 C11.1122449,12.7953517 11.1122449,12.9829288 11.1122449,13.150761 C11.1122449,13.7727273 10.6154024,14.2762238 10.0113978,14.2762238 L1.74043127,14.2762238 L1.73068926,14.2762238 C1.12668464,14.2762238 0.629842126,13.7727273 0.629842126,13.150761 C0.629842126,12.9829288 0.629842126,12.7953517 0.629842126,12.5979021 C0.629842126,11.4152453 0.998051672,10.3248096 1.6055001,9.42663546 C1.72280441,9.24127401 1.84923507,9.06402902 1.98398152,8.89572193 L2.03187782,8.87188753 C2.99758876,7.76172304 4.35997997,7.05302531 5.7874179,7.00303693 L5.79310743,7.00020568 C5.81910411,7.00020568 5.84508347,7.000426 5.87104351,7.00086512 Z" id="Combined-Shape" fill="#FFFFFF"></path>
                                <path d="M5.94897959,6.36836693 L5.94897959,7.63204443 C3.46646301,7.63204443 1.25394407,9.89913822 1.25394407,12.5979021 L1.25394407,13.150761 C1.25394407,13.4232323 1.47085154,13.644385 1.73068926,13.644385 L10.0016558,13.644385 C10.2655,13.644385 10.4742397,13.4367431 10.4787248,13.1600271 L10.4881429,12.8743316 C10.4881429,11.5239795 10.0486543,10.2620849 9.27326258,9.2935701 L10.2429484,8.49787375 C11.198969,9.69200584 11.7363468,11.2349675 11.736023,12.8946829 L11.7265238,13.1905581 C11.7112948,14.1474013 10.9466123,14.9080625 10.0016558,14.9080625 L1.73068926,14.9080625 C0.779506565,14.9080625 0.00574017706,14.1191522 0.00574017706,13.150761 L0.00574017706,12.5979021 C0.00574017706,9.20461333 2.77371072,6.36836693 5.94897959,6.36836693 Z" id="Path" fill="#8C145A"></path>
                                <ellipse id="Oval" fill="#FFFFFF" cx="6.04639969" cy="4.13718634" rx="3.39021948" ry="3.4356232"></ellipse>
                                <path d="M6.04639969,8.20464829 C3.82921375,8.20464829 2.03207826,6.38344456 2.03207826,4.13718634 C2.03207826,1.89092813 3.82921375,0.0697243933 6.04639969,0.0697243933 C8.26358564,0.0697243933 10.0607211,1.89092813 10.0607211,4.13718634 C10.0607211,6.38344456 8.26358564,8.20464829 6.04639969,8.20464829 Z M6.04639969,6.94097079 C7.57394679,6.94097079 8.81251723,5.68581273 8.81251723,4.13718634 C8.81251723,2.58855996 7.57394679,1.33340189 6.04639969,1.33340189 C4.5188526,1.33340189 3.28028216,2.58855996 3.28028216,4.13718634 C3.28028216,5.68581273 4.5188526,6.94097079 6.04639969,6.94097079 Z" id="Oval" fill="#8C145A"></path>
                            </g>
                        </g>
                    </g>
                </g>
            </g>
        </g>
    </g>
</svg>