<?xml version="1.0" encoding="UTF-8"?>
<svg width="42px" height="47px" viewBox="0 0 42 47" version="1.1" xmlns="http://www.w3.org/2000/svg" xmlns:xlink="http://www.w3.org/1999/xlink">
    <!-- Generator: sketchtool 52.5 (67469) - http://www.bohemiancoding.com/sketch -->
    <title>5049AAA1-671E-4E45-B631-7F08DA6B5CC0</title>
    <desc>Created with sketchtool.</desc>
    <g id="Page-1" stroke="none" stroke-width="1" fill="none" fill-rule="evenodd">
        <g id="HOME-open-ID-Pull-down---iPhone8" transform="translate(-27.000000, -451.000000)">
            <g id="Manage-Attestations" transform="translate(9.000000, 444.000000)">
                <g id="Icon/Claim-attested" transform="translate(19.000000, 6.000000)">
                    <g transform="translate(0.000000, 1.757812)">
                        <path d="M30.9186978,39.9635036 L30.9186978,43.1605839 C30.9186978,44.1240876 30.1290042,44.9124088 29.1638231,44.9124088 L1.77681058,44.9124088 C0.811629526,44.9124088 0.0219359331,44.1240876 0.0219359331,43.1605839 L0.0219359331,1.77372263 C0.0219359331,0.810218978 0.811629526,0.0218978102 1.77681058,0.0218978102 L29.1638231,0.0218978102 C30.1290042,0.0218978102 30.9186978,0.810218978 30.9186978,1.77372263 L30.9186978,16.3138686" id="Path" stroke="#F05A28" stroke-width="1.40145985" stroke-linecap="round"></path>
                        <rect id="Rectangle" fill="#F05A28" opacity="0.4" x="3.18071031" y="6.73357664" width="15.080954" height="5.58394161"></rect>
                        <path d="M8.11629526,9.47080292 L15.8596797,9.47080292" id="Path" stroke="#F15B29" stroke-width="1.40145985"></path>
                        <ellipse id="Oval" stroke="#F15B29" stroke-width="1.40145985" cx="5.92270195" cy="9.33941606" rx="1" ry="1"></ellipse>
                        <path d="M23.8553273,7.2919708 C22.1004526,7.2919708 20.4771936,8.84671533 20.4771936,10.7956204 C20.4771936,10.9160584 20.4771936,11.0364964 20.4771936,11.1459854 C20.4771936,11.5291971 20.7952646,11.8467153 21.1791435,11.8467153 L26.4327994,11.8467153 C26.8166783,11.8467153 27.1237813,11.540146 27.1347493,11.1569343 L27.1347493,10.9708029 C27.1347493,10.0072993 26.8057103,9.14233577 26.2682799,8.48540146" id="Path" stroke="#F05A28" stroke-width="1.40145985"></path>
                        <rect id="Rectangle" fill="#F05A28" opacity="0.4" x="3.18071031" y="15.8211679" width="24.5792131" height="5.58394161"></rect>
                        <path d="M8.11629526,18.5583942 L25.6211699,18.5583942" id="Path" stroke="#F15B29" stroke-width="1.40145985"></path>
                        <ellipse id="Oval" stroke="#F15B29" stroke-width="1.40145985" cx="5.92270195" cy="18.4270073" rx="1" ry="1"></ellipse>
                        <rect id="Rectangle" fill="#F05A28" opacity="0.4" x="3.18071031" y="24.9087591" width="24.5682451" height="5.58394161"></rect>
                        <path d="M8.11629526,27.6459854 L19.676532,27.6459854" id="Path" stroke="#F15B29" stroke-width="1.40145985"></path>
                        <ellipse id="Oval" stroke="#F15B29" stroke-width="1.40145985" cx="5.92270195" cy="27.5145985" rx="1" ry="1"></ellipse>
                        <rect id="Rectangle" fill="#F05A28" opacity="0.4" x="3.18071031" y="33.9963504" width="24.5682451" height="5.58394161"></rect>
                        <path d="M8.11629526,36.7335766 L25.6650418,36.7335766" id="Path" stroke="#F15B29" stroke-width="1.40145985"></path>
                        <ellipse id="Oval" stroke="#F15B29" stroke-width="1.40145985" cx="5.92270195" cy="36.6021898" rx="1" ry="1"></ellipse>
                        <ellipse id="Oval" stroke="#F05A28" stroke-width="1.40145985" fill="#FFFFFF" cx="23.9101671" cy="5.49635036" rx="2.14972145" ry="2.1459854"></ellipse>
                        <g id="Group" transform="translate(22.374652, 19.270073)" stroke="#A30C5B" stroke-width="1.40145985">
                            <ellipse id="Oval" fill="#FFFFFF" cx="8.51114206" cy="8.49635036" rx="8.44533426" ry="8.43065693"></ellipse>
                            <path d="M4.82590529,9.32846715 L7.4801532,12.4270073 C7.72144847,12.7007299 8.1382312,12.7007299 8.37952646,12.4160584 L12.7776811,7.14963504 C12.9860724,6.89781022 13.0957521,6.59124088 13.0957521,6.26277372 C13.0957521,4.97080292 11.483461,4.39051095 10.6498955,5.37591241 L7.92983983,8.63868613 L6.95369081,7.5 C6.10915738,6.51459854 4.48589833,7.10583942 4.48589833,8.40875912 C4.48589833,8.74817518 4.60654596,9.07664234 4.82590529,9.32846715 Z" id="Path"></path>
                        </g>
                    </g>
                </g>
            </g>
        </g>
    </g>
</svg>