<?xml version="1.0" encoding="utf-8"?>
<!-- Generator: Adobe Illustrator 21.0.0, SVG Export Plug-In . SVG Version: 6.00 Build 0)  -->
<svg version="1.1" id="Ebene_1" xmlns="http://www.w3.org/2000/svg" xmlns:xlink="http://www.w3.org/1999/xlink" x="0px" y="0px"
	 viewBox="0 0 34 28" style="enable-background:new 0 0 34 28;" xml:space="preserve">
<style type="text/css">
	.st0{fill:#FFFFFF;}
	.st1{fill:#F05A28;fill-opacity:0.4;}
	.st2{fill:#F05A28;}
	.st3{fill:#8C145A;}
</style>
<path class="st0" d="M27.6,1.2c-0.3,1.9-1.8,3.3-3.8,3.3S20.3,3.1,20,1.2h-5.6c-0.3,1.9-1.8,3.3-3.8,3.3S7.1,3.1,6.8,1.2H1.2v25.3
	h31.9V1.2H27.6z"/>
<title>48E41688-73BD-45F3-A090-56BF9E40E5D0</title>
<desc>Created with sketchtool.</desc>
<g id="Page-1">
	<g id="Contacts---LIST---iPhone8" transform="translate(-15.000000, -85.000000)">
		<g id="Body" transform="translate(15.000000, 81.000000)">
			<g id="Components_x2F_Body-Header">
				<g id="Icon_x2F_Claim" transform="translate(0.000000, 1.000000)">
					<g id="Icon_x2F_Contact" transform="translate(0.000000, 3.187500)">
						<g id="short-Line" transform="translate(15.937500, 10.625000)">
							<rect id="Rectangle" x="0.1" y="0" class="st1" width="14.8" height="4"/>
							<polygon id="Path" class="st2" points="4.9,2.5 4.9,1.5 12.5,1.5 12.5,2.5 							"/>
							<path id="Oval" class="st2" d="M2,2.7C1.6,2.7,1.3,2.4,1.3,2S1.6,1.3,2,1.3S2.7,1.6,2.7,2S2.3,2.7,2,2.7z M2,1.7
								C1.8,1.7,1.7,1.8,1.7,2S1.8,2.3,2,2.3S2.2,2.1,2.2,2S2.1,1.7,2,1.7z"/>
						</g>
						<g id="short-Line_1_" transform="translate(15.937500, 17.000000)">
							<rect id="Rectangle_1_" x="0.1" y="0" class="st1" width="14.7" height="4"/>
							<polygon id="Path_1_" class="st2" points="4.9,2.5 4.9,1.5 12.4,1.5 12.4,2.5 							"/>
							<path id="Oval_1_" class="st2" d="M2,2.7C1.6,2.7,1.3,2.4,1.3,2S1.6,1.3,2,1.3S2.7,1.6,2.7,2S2.3,2.7,2,2.7z M2,1.7
								C1.8,1.7,1.7,1.8,1.7,2S1.8,2.3,2,2.3S2.2,2.1,2.2,2S2.1,1.7,2,1.7z"/>
						</g>
						<g id="Person" transform="translate(3.718750, 8.765625)">
							<path id="Combined-Shape" class="st0" d="M4.9,5.8C4.9,5.8,5,5.8,4.9,5.8L4.9,5.8c1.3,0,2.4,0.6,3.2,1.6l0,0
								c0.1,0.1,0.2,0.3,0.3,0.4C9,8.6,9.3,9.6,9.3,10.5c0,0.2,0,0.3,0,0.5c0,0.5-0.4,0.9-0.9,0.9H1.5h0c-0.5,0-0.9-0.4-0.9-0.9
								c0-0.1,0-0.3,0-0.5c0-1,0.3-1.9,0.8-2.7c0.1-0.2,0.2-0.3,0.3-0.4l0,0C2.5,6.5,3.7,5.9,4.9,5.8L4.9,5.8
								C4.9,5.8,4.9,5.8,4.9,5.8z"/>
							<path id="Path_2_" class="st3" d="M5,5.3v1.1C2.9,6.4,1,8.3,1,10.5V11c0,0.2,0.2,0.4,0.4,0.4h6.9c0.2,0,0.4-0.2,0.4-0.4
								l0-0.2c0-1.1-0.4-2.2-1-3l0.8-0.7c0.8,1,1.3,2.3,1.3,3.7l0,0.2c0,0.8-0.7,1.4-1.4,1.4H1.4C0.6,12.5,0,11.8,0,11v-0.5
								C0,7.7,2.3,5.3,5,5.3z"/>
							<circle id="Oval_2_" class="st0" cx="5" cy="3.5" r="2.9"/>
							<path id="Oval_3_" class="st3" d="M5,6.9c-1.9,0-3.5-1.5-3.5-3.5S3.1,0,5,0s3.5,1.5,3.5,3.5S7,6.9,5,6.9z M5,5.8
								c1.3,0,2.4-1.1,2.4-2.4S6.4,1.1,5,1.1S2.7,2.1,2.7,3.5S3.7,5.8,5,5.8z"/>
						</g>
						<path id="Path_3_" class="st2" d="M26.4,0.5c0-0.3,0.2-0.5,0.5-0.5h6.6C33.8,0,34,0.2,34,0.5v26.4c0,0.3-0.2,0.5-0.5,0.5h-33
							c-0.3,0-0.5-0.2-0.5-0.5V0.5C0,0.2,0.2,0,0.5,0h6.6c0.3,0,0.5,0.2,0.5,0.5c0,1.5,1.2,2.8,2.8,2.8s2.8-1.2,2.8-2.8
							c0-0.3,0.2-0.5,0.5-0.5h6.6c0.3,0,0.5,0.2,0.5,0.5c0,1.5,1.2,2.8,2.8,2.8S26.4,2.1,26.4,0.5z M27.4,1
							c-0.3,1.9-1.8,3.3-3.8,3.3S20.1,2.9,19.8,1h-5.6c-0.3,1.9-1.8,3.3-3.8,3.3S6.9,2.9,6.6,1H1v25.3H33V1H27.4z"/>
					</g>
				</g>
			</g>
		</g>
	</g>
</g>
</svg>
