<?xml version="1.0" encoding="UTF-8"?>
<svg width="24px" height="34px" viewBox="0 0 24 34" version="1.1" xmlns="http://www.w3.org/2000/svg" xmlns:xlink="http://www.w3.org/1999/xlink">
    <!-- Generator: sketchtool 52.6 (67491) - http://www.bohemiancoding.com/sketch -->
    <title>F1D7B1E3-DCE8-4980-B94D-32DAC06468E7</title>
    <desc>Created with sketchtool.</desc>
    <g id="Page-1" stroke="none" stroke-width="1" fill="none" fill-rule="evenodd">
        <g id="CTYPE---LIST---iPhone8" transform="translate(-20.000000, -82.000000)">
            <g id="Body" transform="translate(15.000000, 81.000000)">
                <g id="Components/Body-Header">
                    <g id="Icon/Claim" transform="translate(0.000000, 1.000000)">
                        <g id="Icon/ctype" transform="translate(5.046875, 0.000000)">
                            <path d="M22.0668829,32.9375 C22.4927935,32.9375 22.84375,32.5898276 22.84375,32.1671073 L22.84375,1.83289275 C22.84375,1.41017245 22.4927935,1.0625 22.0668829,1.0625 L1.83936709,1.0625 C1.41345653,1.0625 1.0625,1.41017245 1.0625,1.83289275 L1.0625,32.1671073 C1.0625,32.5898276 1.41345653,32.9375 1.83936709,32.9375 L22.0668829,32.9375 Z" id="Path" fill="#FFFFFF"></path>
                            <g id="Group-2">
                                <path d="M22.0872321,32.9706717 C22.5139996,32.9706717 22.8656623,32.6222756 22.8656623,32.1986755 L22.8656623,1.8013245 C22.8656623,1.37772437 22.5139996,1.02932829 22.0872321,1.02932829 L1.81901813,1.02932829 C1.39225063,1.02932829 1.04058797,1.37772437 1.04058797,1.8013245 L1.04058797,32.1986755 C1.04058797,32.6222756 1.39225063,32.9706717 1.81901813,32.9706717 L22.0872321,32.9706717 Z M22.0872319,34 L1.81901815,34 C0.817189073,34 0,33.1904018 0,32.1986755 L0,1.8013245 C0,0.809598242 0.817189073,0 1.81901815,0 L22.0872319,0 C23.0890609,0 23.90625,0.809598242 23.90625,1.8013245 L23.90625,32.1986755 C23.90625,33.1904018 23.0890609,34 22.0872319,34 Z" id="Path" fill="#F05A28"></path>
                                <g id="Group" transform="translate(2.656250, 3.453125)" fill="#8C145A">
                                    <path d="M1.03449652,20.7220808 L1.03449652,23.9029192 L17.5592535,23.9029192 L17.5592535,20.7220808 L1.03449652,20.7220808 Z M18.59375,19.65625 L18.59375,24.96875 L0,24.96875 L0,19.65625 L18.59375,19.65625 Z" id="Rectangle"></path>
                                    <path d="M1.03449652,14.3470808 L1.03449652,17.5279192 L17.5592535,17.5279192 L17.5592535,14.3470808 L1.03449652,14.3470808 Z M18.59375,13.28125 L18.59375,18.59375 L0,18.59375 L0,13.28125 L18.59375,13.28125 Z" id="Rectangle"></path>
                                    <path d="M1.03449652,7.44083077 L1.03449652,10.6216692 L17.5592535,10.6216692 L17.5592535,7.44083077 L1.03449652,7.44083077 Z M18.59375,6.375 L18.59375,11.6875 L0,11.6875 L0,6.375 L18.59375,6.375 Z" id="Rectangle"></path>
                                    <path d="M1.03449652,1.06583077 L1.03449652,4.24666923 L17.5592535,4.24666923 L17.5592535,1.06583077 L1.03449652,1.06583077 Z M18.59375,0 L18.59375,5.3125 L0,5.3125 L0,0 L18.59375,0 Z" id="Rectangle"></path>
                                </g>
                            </g>
                        </g>
                    </g>
                </g>
            </g>
        </g>
    </g>
</svg>