<svg xmlns="http://www.w3.org/2000/svg" width="97" height="128" viewBox="0 0 97 128">
  <g fill="none" fill-rule="evenodd">
    <polygon fill="#F05A28" points="33.515 30.242 37.857 33.632 27.842 50.499 23.5 47.108"/>
    <polygon fill="#F05A28" points="46.29 76 50.513 79.574 41.222 92.69 37 89.116"/>
    <polygon fill="#F05A28" points="62.485 79.125 66.591 75.397 82.843 95.205 78.738 98.932"/>
    <polygon fill="#F05A28" points="39.528 33.859 43.686 30.198 58.964 50.059 54.805 53.72"/>
    <g transform="translate(19.045 88.475)">
      <path fill="#FFF" d="M28.1687851,15.1114536 C28.1687851,7.41454662 22.3818826,1.1745404 15.2438688,1.1745404 C8.10496147,1.1745404 2.31805897,7.41454662 2.31805897,15.1114536 C2.31805897,22.8083606 8.10496147,29.0483668 15.2438688,29.0483668 C22.3818826,29.0483668 28.1687851,22.8083606 28.1687851,15.1114536"/>
      <path fill="#8C145A" d="M29.2927297,15.1048881 C29.2927297,23.4468497 22.7353075,30.2097762 14.6468323,30.2097762 C6.55757876,30.2097762 1.89004368e-12,23.4470112 1.89004368e-12,15.1048881 C1.89004368e-12,6.76276508 6.55757876,-9.16600129e-13 14.6468323,-9.16600129e-13 C22.7353075,-9.16600129e-13 29.2927297,6.76292655 29.2927297,15.1048881 Z M25.789222,15.1048881 C25.789222,8.74593784 20.8003758,3.59060241 14.6467849,3.59060241 C8.49247302,3.59060241 3.5035077,8.74581475 3.5035077,15.1048881 C3.5035077,21.4639615 8.49247302,26.6191738 14.6467849,26.6191738 C20.8003758,26.6191738 25.789222,21.4638384 25.789222,15.1048881 Z M21.9100386,11.5017924 L12.5073425,23.728983 L7.25798378,17.8948529 C6.99946103,17.5729134 6.85714286,16.2772848 6.85714286,15.8553977 C6.85714286,14.2050258 9.6432712,13.4462907 10.6508307,14.700466 L12.5388606,16.5327889 L18.5671056,8.41008427 C19.5361618,7.17125207 22.2857143,8.78651665 22.2857143,10.3987835 C22.2857143,10.8011742 22.1530088,11.1912911 21.9100386,11.5017924 Z"/>
    </g>
    <g transform="translate(16.34 87.149)">
      <path fill="#FFF" d="M31.9246231,16.5738523 C31.9246231,8.13208338 25.3661336,1.2882056 17.2763847,1.2882056 C9.18562299,1.2882056 2.6271335,8.13208338 2.6271335,16.5738523 C2.6271335,25.0156213 9.18562299,31.8594991 17.2763847,31.8594991 C25.3661336,31.8594991 31.9246231,25.0156213 31.9246231,16.5738523"/>
      <path fill="#8C145A" d="M33.198427,16.5666515 C33.198427,25.7158997 25.7666818,33.133303 16.5997433,33.133303 C7.43192259,33.133303 1.89004368e-12,25.7160768 1.89004368e-12,16.5666515 C1.89004368e-12,7.41722621 7.43192259,-9.16600129e-13 16.5997433,-9.16600129e-13 C25.7666818,-9.16600129e-13 33.198427,7.41740332 33.198427,16.5666515 Z M29.2277849,16.5666515 C29.2277849,9.59231892 23.5737592,3.93808006 16.5996896,3.93808006 C9.62480276,3.93808006 3.97064206,9.59218391 3.97064206,16.5666515 C3.97064206,23.5411191 9.62480276,29.1952229 16.5996896,29.1952229 C23.5737592,29.1952229 29.2277849,23.5409841 29.2277849,16.5666515 Z M24.8313771,12.6148691 L14.1749882,26.0253362 L8.22571495,19.6266128 C7.9327225,19.273518 7.77142857,17.852506 7.77142857,17.389791 C7.77142857,15.5797058 10.9290407,14.7475446 12.0709415,16.1230917 L14.2107086,18.1327362 L21.0427197,9.2239634 C22.1409833,7.8652442 25.2571429,9.63682471 25.2571429,11.4051173 C25.2571429,11.8464491 25.1067433,12.2743192 24.8313771,12.6148691 Z"/>
    </g>
    <g transform="translate(62.177 93.504)">
      <path fill="#FFF" d="M32.8635826,17.0613186 C32.8635826,8.37126231 26.1121963,1.326094 17.7845136,1.326094 C9.45578838,1.326094 2.70440213,8.37126231 2.70440213,17.0613186 C2.70440213,25.7513749 9.45578838,32.7965432 17.7845136,32.7965432 C26.1121963,32.7965432 32.8635826,25.7513749 32.8635826,17.0613186"/>
      <path fill="#8C145A" d="M34.1748513,17.0539059 C34.1748513,26.4722497 26.5245254,34.1078119 17.087971,34.1078119 C7.65050855,34.1078119 1.89004368e-12,26.472432 1.89004368e-12,17.0539059 C1.89004368e-12,7.63537992 7.65050855,-9.16600129e-13 17.087971,-9.16600129e-13 C26.5245254,-9.16600129e-13 34.1748513,7.63556224 34.1748513,17.0539059 Z M30.0874257,17.0539059 C30.0874257,9.87444594 24.2671051,4.05390594 17.0879158,4.05390594 C9.90788519,4.05390594 4.08742565,9.87430697 4.08742565,17.0539059 C4.08742565,24.2335049 9.90788519,30.0539059 17.0879158,30.0539059 C24.2671051,30.0539059 30.0874257,24.2333659 30.0874257,17.0539059 Z M25.5617117,12.9858946 L14.5918996,26.7907873 L8.46764774,20.2038661 C8.16603787,19.8403861 8,18.3775797 8,17.9012554 C8,16.0379324 11.2504831,15.1812959 12.4259692,16.5973003 L14.6286707,18.666052 L21.6616232,9.49525644 C22.7921887,8.09657491 26,9.92026073 26,11.740562 C26,12.1948741 25.845177,12.6353286 25.5617117,12.9858946 Z"/>
    </g>
    <g transform="translate(2.704 45.808)">
      <path fill="#FFF" d="M28.1687851,15.1114536 C28.1687851,7.41454662 22.3818826,1.1745404 15.2438688,1.1745404 C8.10496147,1.1745404 2.31805897,7.41454662 2.31805897,15.1114536 C2.31805897,22.8083606 8.10496147,29.0483668 15.2438688,29.0483668 C22.3818826,29.0483668 28.1687851,22.8083606 28.1687851,15.1114536"/>
      <path fill="#8C145A" d="M29.2927297,15.1048881 C29.2927297,23.4468497 22.7353075,30.2097762 14.6468323,30.2097762 C6.55757876,30.2097762 1.89004368e-12,23.4470112 1.89004368e-12,15.1048881 C1.89004368e-12,6.76276508 6.55757876,-9.16600129e-13 14.6468323,-9.16600129e-13 C22.7353075,-9.16600129e-13 29.2927297,6.76292655 29.2927297,15.1048881 Z M25.789222,15.1048881 C25.789222,8.74593784 20.8003758,3.59060241 14.6467849,3.59060241 C8.49247302,3.59060241 3.5035077,8.74581475 3.5035077,15.1048881 C3.5035077,21.4639615 8.49247302,26.6191738 14.6467849,26.6191738 C20.8003758,26.6191738 25.789222,21.4638384 25.789222,15.1048881 Z M21.9100386,11.5017924 L12.5073425,23.728983 L7.25798378,17.8948529 C6.99946103,17.5729134 6.85714286,16.2772848 6.85714286,15.8553977 C6.85714286,14.2050258 9.6432712,13.4462907 10.6508307,14.700466 L12.5388606,16.5327889 L18.5671056,8.41008427 C19.5361618,7.17125207 22.2857143,8.78651665 22.2857143,10.3987835 C22.2857143,10.8011742 22.1530088,11.1912911 21.9100386,11.5017924 Z"/>
    </g>
    <g transform="translate(0 44.482)">
      <path fill="#FFF" d="M31.9246231,16.5738523 C31.9246231,8.13208338 25.3661336,1.2882056 17.2763847,1.2882056 C9.18562299,1.2882056 2.6271335,8.13208338 2.6271335,16.5738523 C2.6271335,25.0156213 9.18562299,31.8594991 17.2763847,31.8594991 C25.3661336,31.8594991 31.9246231,25.0156213 31.9246231,16.5738523"/>
      <path fill="#8C145A" d="M33.198427,16.5666515 C33.198427,25.7158997 25.7666818,33.133303 16.5997433,33.133303 C7.43192259,33.133303 1.89004368e-12,25.7160768 1.89004368e-12,16.5666515 C1.89004368e-12,7.41722621 7.43192259,-9.16600129e-13 16.5997433,-9.16600129e-13 C25.7666818,-9.16600129e-13 33.198427,7.41740332 33.198427,16.5666515 Z M29.2277849,16.5666515 C29.2277849,9.59231892 23.5737592,3.93808006 16.5996896,3.93808006 C9.62480276,3.93808006 3.97064206,9.59218391 3.97064206,16.5666515 C3.97064206,23.5411191 9.62480276,29.1952229 16.5996896,29.1952229 C23.5737592,29.1952229 29.2277849,23.5409841 29.2277849,16.5666515 Z M24.8313771,12.6148691 L14.1749882,26.0253362 L8.22571495,19.6266128 C7.9327225,19.273518 7.77142857,17.852506 7.77142857,17.389791 C7.77142857,15.5797058 10.9290407,14.7475446 12.0709415,16.1230917 L14.2107086,18.1327362 L21.0427197,9.2239634 C22.1409833,7.8652442 25.2571429,9.63682471 25.2571429,11.4051173 C25.2571429,11.8464491 25.1067433,12.2743192 24.8313771,12.6148691 Z"/>
    </g>
    <g transform="translate(38.714 48.633)">
      <path fill="#FFF" d="M32.8635826,17.0613186 C32.8635826,8.37126231 26.1121963,1.326094 17.7845136,1.326094 C9.45578838,1.326094 2.70440213,8.37126231 2.70440213,17.0613186 C2.70440213,25.7513749 9.45578838,32.7965432 17.7845136,32.7965432 C26.1121963,32.7965432 32.8635826,25.7513749 32.8635826,17.0613186"/>
      <path fill="#F05A28" d="M34.1748513,17.0539059 C34.1748513,26.4722497 26.5245254,34.1078119 17.087971,34.1078119 C7.65050855,34.1078119 1.89004368e-12,26.472432 1.89004368e-12,17.0539059 C1.89004368e-12,7.63537992 7.65050855,-9.16600129e-13 17.087971,-9.16600129e-13 C26.5245254,-9.16600129e-13 34.1748513,7.63556224 34.1748513,17.0539059 Z M30.0874257,17.0539059 C30.0874257,9.87444594 24.2671051,4.05390594 17.0879158,4.05390594 C9.90788519,4.05390594 4.08742565,9.87430697 4.08742565,17.0539059 C4.08742565,24.2335049 9.90788519,30.0539059 17.0879158,30.0539059 C24.2671051,30.0539059 30.0874257,24.2333659 30.0874257,17.0539059 Z M25.5617117,12.9858946 L14.5918996,26.7907873 L8.46764774,20.2038661 C8.16603787,19.8403861 8,18.3775797 8,17.9012554 C8,16.0379324 11.2504831,15.1812959 12.4259692,16.5973003 L14.6286707,18.666052 L21.6616232,9.49525644 C22.7921887,8.09657491 26,9.92026073 26,11.740562 C26,12.1948741 25.845177,12.6353286 25.5617117,12.9858946 Z"/>
    </g>
    <g transform="translate(19.65 .52)">
      <path fill="#FFF" d="M32.8635826,17.0613186 C32.8635826,8.37126231 26.1121963,1.326094 17.7845136,1.326094 C9.45578838,1.326094 2.70440213,8.37126231 2.70440213,17.0613186 C2.70440213,25.7513749 9.45578838,32.7965432 17.7845136,32.7965432 C26.1121963,32.7965432 32.8635826,25.7513749 32.8635826,17.0613186"/>
      <path fill="#F05A28" d="M34.1748513,17.0539059 C34.1748513,26.4722497 26.5245254,34.1078119 17.087971,34.1078119 C7.65050855,34.1078119 1.89004368e-12,26.472432 1.89004368e-12,17.0539059 C1.89004368e-12,7.63537992 7.65050855,-9.16600129e-13 17.087971,-9.16600129e-13 C26.5245254,-9.16600129e-13 34.1748513,7.63556224 34.1748513,17.0539059 Z M30.0874257,17.0539059 C30.0874257,9.87444594 24.2671051,4.05390594 17.0879158,4.05390594 C9.90788519,4.05390594 4.08742565,9.87430697 4.08742565,17.0539059 C4.08742565,24.2335049 9.90788519,30.0539059 17.0879158,30.0539059 C24.2671051,30.0539059 30.0874257,24.2333659 30.0874257,17.0539059 Z M25.5617117,12.9858946 L14.5918996,26.7907873 L8.46764774,20.2038661 C8.16603787,19.8403861 8,18.3775797 8,17.9012554 C8,16.0379324 11.2504831,15.1812959 12.4259692,16.5973003 L14.6286707,18.666052 L21.6616232,9.49525644 C22.7921887,8.09657491 26,9.92026073 26,11.740562 C26,12.1948741 25.845177,12.6353286 25.5617117,12.9858946 Z"/>
    </g>
  </g>
</svg>
