<?xml version="1.0" encoding="UTF-8"?>
<svg width="45px" height="31px" viewBox="0 0 45 31" version="1.1" xmlns="http://www.w3.org/2000/svg" xmlns:xlink="http://www.w3.org/1999/xlink">
    <!-- Generator: sketchtool 52.5 (67469) - http://www.bohemiancoding.com/sketch -->
    <title>4592FE45-B3EA-40B0-BCBB-4DC45CF57213</title>
    <desc>Created with sketchtool.</desc>
    <g id="Page-1" stroke="none" stroke-width="1" fill="none" fill-rule="evenodd">
        <g id="HOME---iPhone8" transform="translate(-18.000000, -166.000000)">
            <g id="Manage-ID" transform="translate(8.000000, 152.000000)">
                <g id="Icon/Identity-1" transform="translate(10.000000, 7.000000)">
                    <g transform="translate(0.000000, 7.382812)">
                        <g id="Card">
                            <path d="M41.4407732,28.8196721 L3.51365962,28.8196721 C2.17702125,28.8196721 1.08340805,27.7230242 1.08340805,26.3826768 L1.08340805,3.47492048 C1.08340805,2.13457304 2.17702125,1.03792513 3.51365962,1.03792513 L41.4407732,1.03792513 C42.7774115,1.03792513 43.8710247,2.13457304 43.8710247,3.47492048 L43.8710247,26.3826768 C43.8710247,27.7230242 42.7774115,28.8196721 41.4407732,28.8196721 Z" id="Card-Background" fill="#FFFFFF"></path>
                            <path d="M41.4407732,27.8478398 C42.2400796,27.8478398 42.8991924,27.186898 42.8991924,26.3826768 L42.8991924,3.47492048 C42.8991924,2.67069929 42.2400796,2.00975747 41.4407732,2.00975747 L3.51365962,2.00975747 C2.71435321,2.00975747 2.05524039,2.67069929 2.05524039,3.47492048 L2.05524039,26.3826768 C2.05524039,27.186898 2.71435321,27.8478398 3.51365962,27.8478398 L41.4407732,27.8478398 Z M41.4407732,29.7915045 L3.51365962,29.7915045 C1.63968929,29.7915045 0.111575705,28.2591505 0.111575705,26.3826768 L0.111575705,3.47492048 C0.111575705,1.59844678 1.63968929,0.066092785 3.51365962,0.066092785 L41.4407732,0.066092785 C43.3147435,0.066092785 44.8428571,1.59844678 44.8428571,3.47492048 L44.8428571,26.3826768 C44.8428571,28.2591505 43.3147435,29.7915045 41.4407732,29.7915045 Z M6.44515057,24.4301147 L6.44515057,22.48645 L38.5244713,22.48645 L38.5244713,24.4301147 L6.44515057,24.4301147 Z M6.44515057,20.0435231 L6.44515057,18.0998584 L19.568509,18.0998584 L19.568509,20.0435231 L6.44515057,20.0435231 Z M6.44515057,15.6569314 L6.44515057,13.7132668 L25.4011128,13.7132668 L25.4011128,15.6569314 L6.44515057,15.6569314 Z M6.44515057,10.7829407 L6.44515057,8.83927605 L22.9708612,8.83927605 L22.9708612,10.7829407 L6.44515057,10.7829407 Z" id="Card-with-Text" fill="#F05A28"></path>
                        </g>
                        <g id="Person" transform="translate(28.403565, 6.244801)">
                            <path d="M7.92179706,6.07868274 C8.64062841,6.43164965 9.27686016,6.93278398 9.79372354,7.53908908 L9.79603093,7.53720993 C9.82425202,7.57186226 9.85208607,7.60681326 9.87952996,7.6420565 C10.7135866,8.66600384 11.214251,9.97208422 11.214251,11.3646929 L11.214251,11.852092 C11.214251,11.8651267 11.214121,11.8781329 11.2138621,11.8911094 L11.2138568,11.8950018 C11.2137445,11.898942 11.2136208,11.9028792 11.2134857,11.9068135 C11.2037058,12.2560988 11.1006184,12.5833856 10.9284207,12.8643136 C10.5873019,13.4250318 9.9742373,13.7987225 9.27031802,13.7987225 L1.99475239,13.7987225 C1.96526171,13.7987225 1.93591867,13.7980547 1.90673755,13.7967334 C1.23991712,13.7670671 0.663470362,13.4015291 0.33664968,12.8643136 C0.164452039,12.5833856 0.0613645838,12.2560988 0.0515847556,11.9068135 C0.0514496271,11.9028792 0.0513259144,11.898942 0.0512136493,11.8950018 L0.0512082953,11.8911094 C0.0509494533,11.8781329 0.0508194154,11.8651267 0.0508194154,11.852092 L0.0508194154,11.3646929 C0.0508194154,9.97208422 0.551483816,8.66600384 1.38554045,7.6420565 C1.41298434,7.60681326 1.44081838,7.57186226 1.46903948,7.53720993 L1.47134687,7.53908908 C2.0410037,6.87085477 2.75565932,6.33037318 3.56608804,5.97520782 C3.09880076,5.44798936 2.81496229,4.75362467 2.81496229,3.99278199 C2.81496229,2.34403567 4.14783664,1.00746269 5.79202046,1.00746269 C7.43620429,1.00746269 8.76907864,2.34403567 8.76907864,3.99278199 C8.76907864,4.80449315 8.44601762,5.54053998 7.92179706,6.07868274 Z M7.92179706,6.07868274 C7.68534498,5.96257795 7.43995552,5.86250507 7.18693734,5.77999441 L4.07813307,5.77999441 C3.90368184,5.83688394 3.73285718,5.90212228 3.56608804,5.97520782 C4.11141243,6.59047193 4.90657387,6.9781013 5.79202046,6.9781013 C6.62673934,6.9781013 7.3812217,6.63361464 7.92179706,6.07868274 Z" id="Person-Background" fill="#FFFFFF" fill-rule="nonzero"></path>
                            <path d="M2.69675945,6.45030983 C2.16228842,5.77520209 1.84312995,4.9212458 1.84312995,3.99278199 C1.84312995,1.80790941 3.61050467,0.0356303431 5.79202046,0.0356303431 C7.97353625,0.0356303431 9.74091098,1.80790941 9.74091098,3.99278199 C9.74091098,6.17765457 7.97353625,7.94993364 5.79202046,7.94993364 C5.31898299,7.94993364 4.86541806,7.86660266 4.44512267,7.71380348 C3.01760167,8.29052407 1.9944841,9.74700948 1.9944841,11.3646929 L1.9944841,11.852092 C1.9944841,11.8490585 2.00046682,11.8550578 1.99475239,11.8550578 L9.2698976,11.8550578 C9.26981202,11.8553087 9.27058137,11.8570833 9.27058631,11.8673232 L9.27058631,11.6083925 C9.27058631,10.5312431 8.91696513,9.53575367 8.28893294,8.76460069 L9.79603093,7.53720993 C10.7066209,8.65531209 11.214251,10.0843567 11.214251,11.6083925 L11.2138568,11.8950018 C11.1837435,12.9518907 10.329975,13.7987225 9.27031802,13.7987225 L1.99475239,13.7987225 C0.925802895,13.7987225 0.0508194154,12.921311 0.0508194154,11.852092 L0.0508194154,11.3646929 C0.0508194154,9.34627559 1.10256437,7.50962816 2.69675945,6.45030983 Z M5.79202046,6.00626895 C6.89887233,6.00626895 7.79724629,5.10540207 7.79724629,3.99278199 C7.79724629,2.88016192 6.89887233,1.97929503 5.79202046,1.97929503 C4.6851686,1.97929503 3.78679463,2.88016192 3.78679463,3.99278199 C3.78679463,5.10540207 4.6851686,6.00626895 5.79202046,6.00626895 Z" id="Person-Outlines" fill="#8C145A"></path>
                        </g>
                    </g>
                </g>
            </g>
        </g>
    </g>
</svg>