<svg id="af94d7a5-5abd-4caa-84b1-dbb9c05df4eb" data-name="Ebene 1" xmlns="http://www.w3.org/2000/svg" viewBox="0 0 900 380"><defs><style>.a38e2b2c-24a9-420c-afdc-093e590a4639{fill:#fff;}.b14057ae-d91c-4a6a-a8ea-bf1533890801{fill:#f96943;}</style></defs><path class="a38e2b2c-24a9-420c-afdc-093e590a4639" d="M293,41.47V327.23a6.11,6.11,0,0,1-1.77,4.34l0,0a5.44,5.44,0,0,1-1.72,1.2,5.67,5.67,0,0,1-2.53.58H248.29a6.09,6.09,0,0,1-6-6.14V41.47a6.1,6.1,0,0,1,6-6.15h38.62A6.09,6.09,0,0,1,293,41.47Z"/><path class="a38e2b2c-24a9-420c-afdc-093e590a4639" d="M464.67,290.61H390.55l-.36,0a6,6,0,0,1-5.29-4.85l0-244.43a6,6,0,0,0-6-6H340.19a6,6,0,0,0-6,6V327.37a6,6,0,0,0,6,6l124.48.08a6,6,0,0,0,6-6v-30.8A6,6,0,0,0,464.67,290.61Z"/><path class="a38e2b2c-24a9-420c-afdc-093e590a4639" d="M211.49,324.51,133.25,182a6,6,0,0,1,0-5.78l72.6-132.12a6,6,0,0,0-5.29-8.85H156.75a6.06,6.06,0,0,0-5.29,3.09L92.08,146.45V41.31a6,6,0,0,0-6-6H47.42a6,6,0,0,0-6,6V327.38a6,6,0,0,0,6,6H86a6,6,0,0,0,6-6V261.43l-18-82.27,83,151.17a6,6,0,0,0,5.28,3.09h43.81a6,6,0,0,0,5.28-8.91Z"/><path class="a38e2b2c-24a9-420c-afdc-093e590a4639" d="M610.63,41.31v30.9a6,6,0,0,1-6,6l-74.82,0L553.55,95a3,3,0,0,1,1.27,2.45v230a6,6,0,0,1-6,6h-38a6,6,0,0,1-6-6V84.26a6,6,0,0,0-5.4-6l-.36,0H455a6,6,0,0,1-6-6V41.31a6,6,0,0,1,6-6H604.59A6,6,0,0,1,610.63,41.31Z"/><path class="b14057ae-d91c-4a6a-a8ea-bf1533890801" d="M765.71,69,717.77,35.47H680.26c-4.09,0-7.42,2.75-7.42,6.14V80.05l38.57,27Z"/><path class="b14057ae-d91c-4a6a-a8ea-bf1533890801" d="M773.19,304.88l41.47,29h36.48a8.26,8.26,0,0,0,3.1-.58,6.87,6.87,0,0,0,2.12-1.2l0,0a5.62,5.62,0,0,0,2.18-4.34V288.62l-31.07-21.76Z"/><path class="a38e2b2c-24a9-420c-afdc-093e590a4639" d="M858.62,40.33V80L690.72,197.6a46.93,46.93,0,0,0-17.94,36.92V134.11l141-98.73h37.8C855.09,35.47,858,37.57,858.62,40.33Z"/><path class="b14057ae-d91c-4a6a-a8ea-bf1533890801" d="M821.79,184.34,839.49,172l.09-.07a47,47,0,0,0,19-37.79L827.49,112.3l-54.3,38,48.6,34Z"/><path class="b14057ae-d91c-4a6a-a8ea-bf1533890801" d="M765.71,223.61l-48.6-34-26.39,18.48a47.11,47.11,0,0,0-16.94,27.22l37.63,26.35Z"/><path class="a38e2b2c-24a9-420c-afdc-093e590a4639" d="M839.58,171.88l-.09.07L672.78,288.68v76.05L858.62,234.6V134.09A47,47,0,0,1,839.58,171.88Z"/></svg>