<svg id="a3c96a88-6175-40af-a864-52dc323c4d87" data-name="Ebene 1" xmlns="http://www.w3.org/2000/svg" xmlns:xlink="http://www.w3.org/1999/xlink" viewBox="0 0 1024 1024"><defs><style>.af8b300c-ebf2-4cc4-ae7f-636fc818ccac{fill:#ff0;}.aefc4194-ecc6-4173-a374-aae8e3707534{fill:#fff;}.fca17b2e-4121-4796-a57b-58d1462bb417{fill:url(#ab7cb654-8c8a-402e-91c6-b10346c78f23);}.b8156b41-548f-4b89-8bed-ace57c802132{fill:#8c175b;}</style><linearGradient id="ab7cb654-8c8a-402e-91c6-b10346c78f23" x1="286.44" y1="489.69" x2="737.71" y2="489.69" gradientUnits="userSpaceOnUse"><stop offset="0.24" stop-color="#f96943"/><stop offset="0.78" stop-color="#ce4e2c"/></linearGradient></defs><rect class="af8b300c-ebf2-4cc4-ae7f-636fc818ccac" width="1024" height="1024" rx="180"/><rect class="aefc4194-ecc6-4173-a374-aae8e3707534" width="1024" height="1024" rx="180"/><path class="fca17b2e-4121-4796-a57b-58d1462bb417" d="M530.17,221.46l-131.9,92.36L286.44,235.5V142.13c0-8.23,8.09-14.91,18-14.91h91.12ZM737.71,366.77l-75.62-52.93-131.9,92.35,118,82.64,89.47,62.64ZM394,501.56l-64.1,44.88a114.5,114.5,0,0,0-41.15,66.12l109.55,76.71,131.9-92.35ZM662.09,689.27l-131.9,92.35,100.74,70.54h88.61a20,20,0,0,0,7.53-1.41,16.84,16.84,0,0,0,5.15-2.91l0-.05a13.65,13.65,0,0,0,5.3-10.54V742.13Z"/><path class="b8156b41-548f-4b89-8bed-ace57c802132" d="M691.46,458.56c-.08.05-.15.12-.22.17L286.29,742.27V927L737.71,610.91V366.77A114.15,114.15,0,0,1,691.46,458.56Z"/><path class="b8156b41-548f-4b89-8bed-ace57c802132" d="M737.71,139v96.46L329.87,521a114,114,0,0,0-43.58,89.68V366.82L628.79,127H720.6C729.13,127.22,736.15,132.32,737.71,139Z"/></svg>