<?xml version="1.0" encoding="UTF-8"?>
<svg width="352px" height="162px" viewBox="0 0 352 162" version="1.1" xmlns="http://www.w3.org/2000/svg" xmlns:xlink="http://www.w3.org/1999/xlink">
    <!-- Generator: sketchtool 52.5 (67469) - http://www.bohemiancoding.com/sketch -->
    <title>0C09BE53-E774-437A-96E8-08608F12CA0A</title>
    <desc>Created with sketchtool.</desc>
    <g id="Page-1" stroke="none" stroke-width="1" fill="none" fill-rule="evenodd">
        <g id="180817_KILT_Übersicht-Bilder-Icons" transform="translate(-1116.000000, -166.000000)">
            <g id="Logo/Kilt-negative" transform="translate(1116.000000, 166.000000)">
                <path d="M281.3976,77.636 C281.3976,77.636 264.1466,95.755 269.1716,101.266 L307.0056,142.949 C307.3816,143.364 307.9166,143.601 308.4776,143.601 L336.7786,143.601 C338.5046,143.601 339.4116,141.553 338.2516,140.275 L281.3976,77.636 Z" id="Fill-17" fill="#FFFFFF"></path>
                <path d="M318.2915,85.0809 C318.2915,85.0809 335.5425,66.9619 330.5175,61.4519 L292.6835,19.7679 C292.3065,19.3529 291.7715,19.1159 291.2115,19.1159 L262.9095,19.1159 C261.1845,19.1159 260.2775,21.1639 261.4375,22.4419 L318.2915,85.0809 Z" id="Fill-19" fill="#FFFFFF"></path>
                <path d="M318.2915,85.0809 C318.2915,85.0809 335.5425,66.9619 330.5175,61.4519 C342.8925,75.0179 348.5535,81.3209 350.7785,83.7599 C351.4605,84.5079 351.4685,85.6459 350.8015,86.4069 L285.2125,161.2889 C284.8355,161.7199 284.2905,161.9679 283.7175,161.9679 L255.3335,161.9679 C253.6245,161.9679 252.7115,159.9539 253.8375,158.6679 L318.2915,85.0809 Z" id="Fill-21" fill="#F05A28"></path>
                <path d="M281.3976,77.636 C281.3976,77.636 264.1466,95.755 269.1716,101.266 C256.7966,87.7 251.1356,81.397 248.9106,78.957 C248.2286,78.209 248.2206,77.071 248.8866,76.31 L314.4756,1.428 C314.8536,0.997 315.3986,0.75 315.9716,0.75 L344.3556,0.75 C346.0646,0.75 346.9776,2.763 345.8506,4.049 L281.3976,77.636 Z" id="Fill-23" fill="#F05A28"></path>
                <path d="M15.0522,35.687 L2.3702,35.687 C1.2712,35.687 0.3802,36.576 0.3802,37.673 L0.3802,131.855 C0.3802,132.952 1.2712,133.842 2.3702,133.842 L15.0522,133.842 C16.1512,133.842 17.0422,132.952 17.0422,131.855 L17.0422,37.673 C17.0422,36.576 16.1512,35.687 15.0522,35.687 Z M39.4562,84.023 C39.1302,83.429 39.1302,82.71 39.4562,82.117 L63.3552,38.62 C64.0802,37.3 63.1232,35.687 61.6162,35.687 L47.1922,35.687 C46.4682,35.687 45.8022,36.081 45.4532,36.715 L19.9882,83.065 L19.9972,83.07 L19.9882,83.075 L47.3162,132.814 C47.6642,133.447 48.3312,133.842 49.0552,133.842 L63.4782,133.842 C64.9862,133.842 65.9422,132.229 65.2172,130.909 L39.4562,84.023 Z M159.0992,118.466 L135.2742,118.453 C134.1752,118.453 133.2852,117.564 133.2852,116.467 L133.2852,37.673 C133.2852,36.576 132.3942,35.687 131.2962,35.687 L118.4732,35.687 C117.3752,35.687 116.4842,36.576 116.4842,37.673 L116.4842,131.856 C116.4842,132.952 117.3752,133.842 118.4732,133.842 L149.3812,133.842 C149.9512,133.842 150.4932,133.598 150.8712,133.172 L160.7192,122.057 C161.9542,120.663 160.9632,118.466 159.0992,118.466 Z M209.4452,35.687 L157.4322,35.687 C156.3332,35.687 155.4432,36.576 155.4432,37.673 L155.4432,47.842 C155.4432,48.939 156.3332,49.828 157.4322,49.828 L171.9202,49.828 C173.0182,49.828 173.9092,50.717 173.9092,51.814 L173.9092,131.855 C173.9092,132.952 174.7992,133.842 175.8982,133.842 L188.3032,133.842 C189.4022,133.842 190.2932,132.952 190.2932,131.855 L190.2932,51.814 C190.2932,50.717 191.1832,49.828 192.2822,49.828 L200.4362,49.828 C201.0052,49.828 201.5472,49.584 201.9252,49.158 L210.9352,38.989 C212.0712,37.708 211.1592,35.687 209.4452,35.687 Z M95.4452,37.673 L95.4452,131.855 C95.4452,132.952 94.5542,133.842 93.4552,133.842 L80.7732,133.842 C79.6742,133.842 78.7832,132.952 78.7832,131.855 L78.7832,48.603 C78.7832,48.118 78.9612,47.65 79.2832,47.286 L88.9662,36.357 C89.3442,35.931 89.8862,35.687 90.4562,35.687 L93.4552,35.687 C94.5542,35.687 95.4452,36.576 95.4452,37.673 Z" id="Fill-25" fill="#FFFFFF"></path>
            </g>
        </g>
    </g>
</svg>