<?xml version="1.0" encoding="UTF-8"?>
<svg width="352px" height="162px" viewBox="0 0 352 162" version="1.1" xmlns="http://www.w3.org/2000/svg" xmlns:xlink="http://www.w3.org/1999/xlink">
    <!-- Generator: sketchtool 52.5 (67469) - http://www.bohemiancoding.com/sketch -->
    <title>89D5A720-DB3C-4EC6-8BC1-5FE525AE54C2</title>
    <desc>Created with sketchtool.</desc>
    <g id="Page-1" stroke="none" stroke-width="1" fill="none" fill-rule="evenodd">
        <g id="180817_KILT_Übersicht-Bilder-Icons" transform="translate(-75.000000, -166.000000)">
            <g id="Logo/Kilt" transform="translate(75.000000, 166.000000)">
                <path d="M281.8149,77.636 C281.8149,77.636 264.5639,95.755 269.5889,101.266 L307.4229,142.949 C307.7989,143.364 308.3349,143.601 308.8949,143.601 L337.1969,143.601 C338.9219,143.601 339.8289,141.553 338.6689,140.275 L281.8149,77.636 Z" id="Fill-6" fill="#8C145A"></path>
                <path d="M318.7088,85.0809 C318.7088,85.0809 335.9598,66.9619 330.9348,61.4519 L293.1008,19.7679 C292.7238,19.3529 292.1888,19.1159 291.6288,19.1159 L263.3268,19.1159 C261.6018,19.1159 260.6948,21.1639 261.8548,22.4419 L318.7088,85.0809 Z" id="Fill-8" fill="#8C145A"></path>
                <path d="M318.7088,85.0809 C318.7088,85.0809 335.9598,66.9619 330.9348,61.4519 C343.3098,75.0179 348.9708,81.3209 351.1958,83.7599 C351.8778,84.5079 351.8858,85.6459 351.2198,86.4069 L285.6298,161.2889 C285.2528,161.7199 284.7078,161.9679 284.1348,161.9679 L255.7508,161.9679 C254.0418,161.9679 253.1288,159.9539 254.2548,158.6679 L318.7088,85.0809 Z" id="Fill-10" fill="#F05A28"></path>
                <path d="M281.8149,77.636 C281.8149,77.636 264.5639,95.755 269.5889,101.266 C257.2139,87.7 251.5529,81.397 249.3279,78.957 C248.6459,78.209 248.6379,77.071 249.3039,76.31 L314.8939,1.428 C315.2709,0.997 315.8159,0.75 316.3889,0.75 L344.7729,0.75 C346.4819,0.75 347.3949,2.763 346.2679,4.049 L281.8149,77.636 Z" id="Fill-12" fill="#F05A28"></path>
                <path d="M15.4696,35.687 L2.7876,35.687 C1.6886,35.687 0.7976,36.576 0.7976,37.673 L0.7976,131.855 C0.7976,132.952 1.6886,133.842 2.7876,133.842 L15.4696,133.842 C16.5686,133.842 17.4596,132.952 17.4596,131.855 L17.4596,37.673 C17.4596,36.576 16.5686,35.687 15.4696,35.687 Z M39.8736,84.023 C39.5476,83.429 39.5476,82.71 39.8736,82.117 L63.7726,38.62 C64.4976,37.3 63.5406,35.687 62.0336,35.687 L47.6096,35.687 C46.8856,35.687 46.2196,36.081 45.8706,36.715 L20.4056,83.065 L20.4146,83.07 L20.4056,83.075 L47.7336,132.814 C48.0816,133.447 48.7476,133.842 49.4726,133.842 L63.8956,133.842 C65.4036,133.842 66.3596,132.229 65.6346,130.909 L39.8736,84.023 Z M159.5166,118.466 L135.6916,118.453 C134.5926,118.453 133.7026,117.564 133.7026,116.467 L133.7026,37.673 C133.7026,36.576 132.8116,35.687 131.7136,35.687 L118.8906,35.687 C117.7926,35.687 116.9016,36.576 116.9016,37.673 L116.9016,131.856 C116.9016,132.952 117.7926,133.842 118.8906,133.842 L149.7986,133.842 C150.3686,133.842 150.9106,133.598 151.2876,133.172 L161.1366,122.057 C162.3716,120.663 161.3806,118.466 159.5166,118.466 Z M209.8626,35.687 L157.8496,35.687 C156.7506,35.687 155.8606,36.576 155.8606,37.673 L155.8606,47.842 C155.8606,48.939 156.7506,49.828 157.8496,49.828 L172.3376,49.828 C173.4356,49.828 174.3266,50.717 174.3266,51.814 L174.3266,131.855 C174.3266,132.952 175.2166,133.842 176.3156,133.842 L188.7206,133.842 C189.8196,133.842 190.7106,132.952 190.7106,131.855 L190.7106,51.814 C190.7106,50.717 191.6006,49.828 192.6996,49.828 L200.8536,49.828 C201.4226,49.828 201.9646,49.584 202.3426,49.158 L211.3516,38.989 C212.4886,37.708 211.5766,35.687 209.8626,35.687 Z M95.8626,37.673 L95.8626,131.855 C95.8626,132.952 94.9716,133.842 93.8726,133.842 L81.1906,133.842 C80.0916,133.842 79.2006,132.952 79.2006,131.855 L79.2006,48.603 C79.2006,48.118 79.3786,47.65 79.7006,47.286 L89.3836,36.357 C89.7616,35.931 90.3036,35.687 90.8736,35.687 L93.8726,35.687 C94.9716,35.687 95.8626,36.576 95.8626,37.673 Z" id="Fill-14" fill="#50415A"></path>
            </g>
        </g>
    </g>
</svg>