<svg width="168" height="168" xmlns="http://www.w3.org/2000/svg"><g fill="none" fill-rule="evenodd"><path fill="#FFF" d="M0 0h168v168H0z"/><g fill-rule="nonzero"><path d="M66.49 81.157S49.405 99.164 54.38 104.64l37.47 41.426c.373.412.904.648 1.458.648h28.03c1.709 0 2.607-2.036 1.458-3.306L66.49 81.157zM103.029 88.556s17.085-18.007 12.108-23.483l-37.47-41.427a1.968 1.968 0 00-1.458-.648H48.18c-1.708 0-2.606 2.035-1.457 3.305l56.307 62.253z" fill="#8C145A"/><path d="M103.029 88.556s17.085-18.007 12.108-23.483c12.256 13.482 17.863 19.746 20.067 22.17.675.743.683 1.874.023 2.63l-64.959 74.42a1.965 1.965 0 01-1.48.675H40.675c-1.692 0-2.597-2.001-1.481-3.28l63.834-73.132zM66.49 81.157S49.405 99.164 54.38 104.64C42.125 91.159 36.52 84.895 34.315 82.47a1.978 1.978 0 01-.024-2.631l64.96-74.42a1.964 1.964 0 011.48-.674h28.111c1.693 0 2.597 2 1.481 3.279L66.49 81.157z" fill="#F05A28"/></g></g></svg>