<?xml version="1.0" encoding="UTF-8"?>
<svg width="168px" height="168px" viewBox="0 0 168 168" version="1.1" xmlns="http://www.w3.org/2000/svg" xmlns:xlink="http://www.w3.org/1999/xlink">
    <title>Group</title>
    <g id="Page-1" stroke="none" stroke-width="1" fill="none" fill-rule="evenodd">
        <g id="Artboard" transform="translate(-189.000000, -90.000000)">
            <g id="Group" transform="translate(189.000000, 90.000000)">
                <rect id="Rectangle" fill="#FFFFFF" x="0" y="0" width="168" height="168"></rect>
                <g id="kilt-copy" transform="translate(33.000000, 4.000000)" fill-rule="nonzero">
                    <path d="M33.4897567,77.1567654 C33.4897567,77.1567654 16.4046317,95.1639198 21.3813144,100.640901 L58.851526,142.066599 C59.2239106,142.479037 59.7547567,142.714574 60.3093721,142.714574 L88.3392375,142.714574 C90.047651,142.714574 90.9459298,140.679216 89.7970837,139.409105 L33.4897567,77.1567654 Z" id="Fill-6" fill="#8C145A"></path>
                    <path d="M70.0289077,84.5557093 C70.0289077,84.5557093 87.1140327,66.5485549 82.13735,61.0725673 L44.6671385,19.6458759 C44.2937635,19.2334377 43.7639077,18.9979006 43.2092923,18.9979006 L15.1794269,18.9979006 C13.4710135,18.9979006 12.5727346,21.0332586 13.7215808,22.3033698 L70.0289077,84.5557093 Z" id="Fill-8" fill="#8C145A"></path>
                    <path d="M70.0289077,84.5557093 C70.0289077,84.5557093 87.1140327,66.5485549 82.13735,61.0725673 C94.3933596,74.5548265 99.9999269,80.8189191 102.203533,83.2428636 C102.878975,83.9862463 102.886898,85.1172216 102.227302,85.8735241 L37.267975,160.29329 C36.8946,160.721629 36.3548404,160.968098 35.78735,160.968098 L7.67627308,160.968098 C5.98370577,160.968098 5.07948462,158.96653 6.19465769,157.688469 L70.0289077,84.5557093 Z" id="Fill-10" fill="#F05A28"></path>
                    <path d="M33.4897567,77.1567654 C33.4897567,77.1567654 16.4046317,95.1639198 21.3813144,100.640901 C9.12530481,87.158642 3.5187375,80.8945494 1.31513173,78.4696111 C0.639689423,77.7262284 0.631766346,76.5952531 1.2913625,75.8389506 L66.2506894,1.41918519 C66.6240644,0.990845679 67.163824,0.74537037 67.7313144,0.74537037 L95.8423913,0.74537037 C97.5349587,0.74537037 98.4391798,2.74594444 97.3230163,4.02400617 L33.4897567,77.1567654 Z" id="Fill-12" fill="#F05A28"></path>
                </g>
            </g>
        </g>
    </g>
</svg>