<?xml version="1.0" encoding="utf-8"?>
<!-- Generator: Adobe Illustrator 21.0.0, SVG Export Plug-In . SVG Version: 6.00 Build 0)  -->
<svg version="1.1" id="Ebene_1" xmlns="http://www.w3.org/2000/svg" xmlns:xlink="http://www.w3.org/1999/xlink" x="0px" y="0px"
	 viewBox="0 0 45 35" style="enable-background:new 0 0 45 35;" xml:space="preserve">
<style type="text/css">
	.st0{fill:#F05A28;}
	.st1{fill:#FFFFFF;}
</style>
<title>7AE6BC32-C226-4276-8F6F-A3CC731B831C</title>
<desc>Created with sketchtool.</desc>
<g id="Mask">
	<g id="path-1_1_">
		<path class="st0" d="M5.1,33.7c-2.5,0-4.5-2-4.5-4.5V12.1c0-0.6,0.4-1,1-1c0.2,0,0.4,0.1,0.6,0.2c1.9,1.4,4.3,3.2,12.9,9.5
			c0.3,0.2,0.6,0.4,0.9,0.7c1.8,1.4,4.2,3.2,6.5,3.2c0,0,0,0,0,0c2.4,0,4.9-1.9,6.6-3.2c0.3-0.2,0.6-0.5,0.9-0.7
			c8.3-6,10.9-8,12.9-9.5c0.2-0.1,0.4-0.2,0.6-0.2c0.6,0,1,0.4,1,1v17.1c0,2.5-2,4.5-4.5,4.5H5.1z M22.5,23c-1.8,0-4-1.7-5.6-2.9
			c-0.3-0.2-0.6-0.5-0.8-0.6C5.8,12,4.3,10.8,2.1,9.1L1.6,8.7c-0.6-0.5-1-1.2-1-2V5.1c0-2.5,2-4.5,4.5-4.5h34.8c2.5,0,4.5,2,4.5,4.5
			v1.6c0,0.8-0.4,1.5-1,2L43,9c-2.3,1.8-3.6,2.8-14.1,10.4c-0.2,0.2-0.5,0.4-0.8,0.6C26.5,21.3,24.3,23,22.5,23L22.5,23z"/>
		<path class="st1" d="M39.9,1.1c2.2,0,4,1.8,4,4v1.6c0,0.6-0.3,1.2-0.8,1.6c-2.6,2-3.4,2.7-14.5,10.8c-1.4,1-4.2,3.5-6.1,3.5
			c0,0,0,0,0,0c0,0,0,0,0,0c-1.9,0-4.7-2.4-6.1-3.5C5.3,11,4.4,10.3,1.9,8.3c-0.5-0.4-0.8-1-0.8-1.6V5.1c0-2.2,1.8-4,4-4H39.9
			 M43.4,11.6c0.3,0,0.5,0.2,0.5,0.5v17.1c0,2.2-1.8,4-4,4H5.1c-2.2,0-4-1.8-4-4V12.1c0-0.3,0.2-0.5,0.5-0.5c0.1,0,0.2,0,0.3,0.1
			c1.9,1.5,4.4,3.3,12.9,9.5c1.8,1.3,4.7,4,7.7,4c0,0,0,0,0,0c0,0,0,0,0,0c3,0,6-2.7,7.7-4c8.5-6.2,11-8,12.9-9.5
			C43.2,11.6,43.3,11.6,43.4,11.6 M39.9,0.1H5.1c-2.8,0-5,2.2-5,5v1.6c0,0.9,0.4,1.8,1.1,2.4l0.5,0.4c2.2,1.7,3.7,2.9,14,10.4
			c0.2,0.2,0.5,0.4,0.8,0.6c1.7,1.3,3.9,3,5.9,3h0l0,0l0,0c1.9,0,4.2-1.8,5.9-3c0.3-0.2,0.6-0.4,0.8-0.6
			c10.5-7.6,11.8-8.7,14.1-10.4L43.7,9c0.7-0.6,1.2-1.4,1.2-2.4V5.1C44.9,2.3,42.6,0.1,39.9,0.1L39.9,0.1z M43.4,10.6L43.4,10.6
			c-0.3,0-0.7,0.1-0.9,0.3c-1.9,1.5-4.6,3.5-12.8,9.5c-0.3,0.2-0.6,0.4-0.9,0.7c-1.6,1.2-4,3.1-6.2,3.1l-0.1,0
			c-2.2,0-4.5-1.8-6.2-3.1c-0.3-0.3-0.6-0.5-0.9-0.7c-8.6-6.3-11-8-12.9-9.5c-0.3-0.2-0.6-0.3-0.9-0.3c-0.8,0-1.5,0.7-1.5,1.5v17.1
			c0,2.8,2.2,5,5,5h34.8c2.8,0,5-2.2,5-5V12.1C44.9,11.2,44.2,10.6,43.4,10.6L43.4,10.6z"/>
	</g>
</g>
</svg>
