<?xml version="1.0" encoding="utf-8"?>
<!-- Generator: Adobe Illustrator 21.0.0, SVG Export Plug-In . SVG Version: 6.00 Build 0)  -->
<svg version="1.1" id="Ebene_1" xmlns="http://www.w3.org/2000/svg" xmlns:xlink="http://www.w3.org/1999/xlink" x="0px" y="0px"
	 viewBox="0 0 82 80.3" style="enable-background:new 0 0 82 80.3;" xml:space="preserve">
<style type="text/css">
	.st0{fill:#F05A28;}
	.st1{fill:#FFFFFF;}
	.st2{fill:#8C145A;}
</style>
<g>
	<polygon class="st0" points="31.3,28.3 35.5,31.9 26.2,45 22,41.4 	"/>
	<polygon class="st0" points="47.5,31.5 51.6,27.7 67.8,47.5 63.7,51.3 	"/>
	<g transform="translate(19.045 88.475)">
		<path class="st1" d="M13.2-32.6c0-7.7-5.8-13.9-12.9-13.9c-7.1,0-12.9,6.2-12.9,13.9s5.8,13.9,12.9,13.9
			C7.4-18.6,13.2-24.9,13.2-32.6"/>
		<path class="st2" d="M14.3-32.6c0,8.3-6.6,15.1-14.6,15.1c-8.1,0-14.6-6.8-14.6-15.1s6.6-15.1,14.6-15.1
			C7.7-47.7,14.3-40.9,14.3-32.6z M10.8-32.6c0-6.4-5-11.5-11.1-11.5c-6.2,0-11.1,5.2-11.1,11.5S-6.5-21-0.4-21
			C5.8-21,10.8-26.2,10.8-32.6z M6.9-36.2l-9.4,12.2l-5.2-5.8c-0.3-0.3-0.4-1.6-0.4-2c0-1.7,2.8-2.4,3.8-1.2l1.9,1.8l6-8.1
			c1-1.2,3.7,0.4,3.7,2C7.3-36.9,7.2-36.5,6.9-36.2z"/>
	</g>
	<g transform="translate(16.34 87.149)">
		<path class="st1" d="M16.9-31.1c0-8.4-6.6-15.3-14.6-15.3c-8.1,0-14.6,6.8-14.6,15.3s6.6,15.3,14.6,15.3
			C10.4-15.8,16.9-22.7,16.9-31.1"/>
		<path class="st2" d="M18.2-31.1c0,9.1-7.4,16.6-16.6,16.6C-7.6-14.5-15-22-15-31.1s7.4-16.6,16.6-16.6
			C10.8-47.7,18.2-40.2,18.2-31.1z M14.2-31.1c0-7-5.7-12.6-12.6-12.6c-7,0-12.6,5.7-12.6,12.6s5.7,12.6,12.6,12.6
			C8.6-18.5,14.2-24.1,14.2-31.1z M9.8-35.1L-0.8-21.6L-6.8-28c-0.3-0.4-0.5-1.8-0.5-2.2c0-1.8,3.2-2.6,4.3-1.3l2.1,2L6-38.4
			c1.1-1.4,4.2,0.4,4.2,2.2C10.3-35.8,10.1-35.4,9.8-35.1z"/>
	</g>
	<g transform="translate(62.177 93.504)">
		<path class="st1" d="M17.9-30.6c0-8.7-6.8-15.7-15.1-15.7c-8.3,0-15.1,7-15.1,15.7s6.8,15.7,15.1,15.7
			C11.1-14.9,17.9-21.9,17.9-30.6"/>
		<path class="st2" d="M19.2-30.6c0,9.4-7.7,17.1-17.1,17.1c-9.4,0-17.1-7.6-17.1-17.1s7.7-17.1,17.1-17.1
			C11.5-47.7,19.2-40,19.2-30.6z M15.1-30.6c0-7.2-5.8-13-13-13c-7.2,0-13,5.8-13,13s5.8,13,13,13C9.3-17.6,15.1-23.4,15.1-30.6z
			 M10.6-34.7l-11,13.8l-6.1-6.6C-6.8-27.8-7-29.3-7-29.8c0-1.9,3.3-2.7,4.4-1.3l2.2,2.1l7-9.2c1.1-1.4,4.3,0.4,4.3,2.2
			C11-35.5,10.8-35,10.6-34.7z"/>
	</g>
	<g transform="translate(38.714 48.633)">
		<path class="st1" d="M17.9-30.6c0-8.7-6.8-15.7-15.1-15.7c-8.3,0-15.1,7-15.1,15.7s6.8,15.7,15.1,15.7
			C11.1-14.9,17.9-21.9,17.9-30.6"/>
		<path class="st0" d="M19.2-30.6c0,9.4-7.7,17.1-17.1,17.1c-9.4,0-17.1-7.6-17.1-17.1s7.7-17.1,17.1-17.1
			C11.5-47.7,19.2-40,19.2-30.6z M15.1-30.6c0-7.2-5.8-13-13-13c-7.2,0-13,5.8-13,13s5.8,13,13,13C9.3-17.6,15.1-23.4,15.1-30.6z
			 M10.6-34.7l-11,13.8l-6.1-6.6C-6.8-27.8-7-29.3-7-29.8c0-1.9,3.3-2.7,4.4-1.3l2.2,2.1l7-9.2c1.1-1.4,4.3,0.4,4.3,2.2
			C11-35.5,10.8-35,10.6-34.7z"/>
	</g>
</g>
</svg>
