<?xml version="1.0" encoding="utf-8"?>
<!-- Generator: Adobe Illustrator 21.0.0, SVG Export Plug-In . SVG Version: 6.00 Build 0)  -->
<svg version="1.1" id="Ebene_1" xmlns="http://www.w3.org/2000/svg" xmlns:xlink="http://www.w3.org/1999/xlink" x="0px" y="0px"
	 viewBox="0 0 45 45" style="enable-background:new 0 0 45 45;" xml:space="preserve">
<style type="text/css">
	.st0{fill:#FFFFFF;}
	.st1{fill:#F05A28;}
</style>
<title>716B27EC-C977-4AAB-B223-7E87907933A6</title>
<desc>Created with sketchtool.</desc>
<g id="Page-1">
	<g id="HOME---iPhone8" transform="translate(-18.000000, -524.000000)">
		<g id="Settings" transform="translate(9.000000, 517.000000)">
			<g id="settings-gear-63" transform="translate(9.000000, 7.000000)">
				<g id="Combined-Shape">
					<path class="st0" d="M19.1,44.2L18.6,38c-1.5-0.4-3-1-4.3-1.8l-4.8,4.1l-4.7-4.7l4.1-4.8C8,29.3,7.4,27.9,7,26.4l-6.3-0.5v-6.7
						L7,18.6c0.4-1.5,1-3,1.8-4.3L4.7,9.5l4.7-4.7l4.8,4.1C15.7,8,17.1,7.4,18.6,7l0.5-6.3h6.7L26.4,7c1.5,0.4,3,1,4.3,1.8l4.8-4.1
						l4.7,4.7l-4.1,4.8c0.8,1.3,1.4,2.8,1.8,4.3l6.3,0.5v6.7L38,26.4c-0.4,1.5-1,3-1.8,4.3l4.1,4.8l-4.7,4.7l-4.8-4.1
						c-1.3,0.8-2.8,1.4-4.3,1.8L26,44.2H19.1z M22.5,17.2c-2.9,0-5.3,2.4-5.3,5.3s2.4,5.3,5.3,5.3s5.3-2.4,5.3-5.3
						S25.4,17.2,22.5,17.2z"/>
					<path class="st1" d="M25.4,1.2l0.5,6.2c1.7,0.4,3.4,1.1,4.8,2l4.7-4l4.1,4.1l-4,4.7c0.9,1.5,1.6,3.1,2,4.8l6.2,0.5v5.8
						l-6.2,0.5c-0.4,1.7-1.1,3.4-2,4.8l4,4.7l-4.1,4.1l-4.7-4c-1.5,0.9-3.1,1.6-4.8,2l-0.5,6.2h-5.8l-0.5-6.2
						c-1.7-0.4-3.4-1.1-4.8-2l-4.7,4l-4.1-4.1l4-4.7c-0.9-1.5-1.6-3.1-2-4.8l-6.2-0.5v-5.8L7.5,19c0.4-1.7,1.1-3.4,2-4.8l-4-4.7
						l4.1-4.1l4.7,4c1.5-0.9,3.1-1.6,4.8-2l0.5-6.2L25.4,1.2 M22.5,28.3c3.2,0,5.8-2.6,5.8-5.8s-2.6-5.8-5.8-5.8s-5.8,2.6-5.8,5.8
						S19.3,28.3,22.5,28.3 M26.3,0.2h-0.9h-5.8h-0.9l-0.1,0.9l-0.5,5.5c-1.3,0.4-2.6,0.9-3.8,1.6l-4.2-3.6L9.5,4.1L8.8,4.7L4.7,8.8
						L4.1,9.5l0.6,0.7l3.6,4.2c-0.7,1.2-1.2,2.5-1.6,3.8l-5.5,0.5l-0.9,0.1v0.9v5.8v0.9l0.9,0.1L6.7,27c0.4,1.3,0.9,2.6,1.6,3.8
						L4.7,35l-0.6,0.7l0.7,0.7l4.1,4.1l0.7,0.7l0.7-0.6l4.2-3.6c1.2,0.7,2.5,1.2,3.8,1.6l0.5,5.5l0.1,0.9h0.9h5.8h0.9l0.1-0.9
						l0.5-5.5c1.3-0.4,2.6-0.9,3.8-1.6l4.2,3.6l0.7,0.6l0.7-0.7l4.1-4.1l0.7-0.7L40.7,35l-3.6-4.2c0.7-1.2,1.2-2.5,1.6-3.8l5.5-0.5
						l0.9-0.1v-0.9v-5.8v-0.9l-0.9-0.1l-5.5-0.5c-0.4-1.3-0.9-2.6-1.6-3.8l3.6-4.2l0.6-0.7l-0.7-0.7l-4.1-4.1L35.8,4l-0.7,0.6
						l-4.2,3.6c-1.2-0.7-2.5-1.2-3.8-1.6l-0.5-5.5L26.3,0.2L26.3,0.2z M22.5,27.3c-2.6,0-4.8-2.2-4.8-4.8s2.2-4.8,4.8-4.8
						s4.8,2.2,4.8,4.8S25.1,27.3,22.5,27.3L22.5,27.3z"/>
				</g>
			</g>
		</g>
	</g>
</g>
</svg>
