<?xml version="1.0" encoding="UTF-8"?>
<svg width="46px" height="47px" viewBox="0 0 46 47" version="1.1" xmlns="http://www.w3.org/2000/svg" xmlns:xlink="http://www.w3.org/1999/xlink">
    <!-- Generator: sketchtool 52.5 (67469) - http://www.bohemiancoding.com/sketch -->
    <title>232ABD65-E4EF-4686-8459-A29E54AFA7A5</title>
    <desc>Created with sketchtool.</desc>
    <g id="Page-1" stroke="none" stroke-width="1" fill="none" fill-rule="evenodd">
        <g id="HOME-open-ID-Pull-down---iPhone8" transform="translate(-17.000000, -230.000000)">
            <g id="Walltet" transform="translate(9.000000, 225.000000)">
                <g id="Icon/Wallet" transform="translate(9.000000, 6.000000)">
                    <g id="Path">
                        <path d="M4.71330554,15.9090909 L3.18774288,11.2159091 C2.88035338,10.2613636 3.404054,9.23863636 4.36037686,8.92045455 L31.4106521,0.181818182 C32.366975,-0.125 33.3916066,0.397727273 33.7103809,1.35227273 L38.4236864,15.9090909" stroke="#F15B29" stroke-width="1.45454545" fill="#FFFFFF"></path>
                        <path d="M8.43613382,12.4545455 L20.2193977,8.64772727" stroke="#F15B29" stroke-width="1.45454545"></path>
                        <path d="M21.4375708,12.2840909 L10.212162,15.9090909" stroke="#F15B29" stroke-width="1.45454545"></path>
                        <path d="M27.118584,10.9886364 C25.6271758,12.0113636 24.7619313,13.9659091 25.1603991,15.9090909" stroke="#F15B29" stroke-width="1.45454545"></path>
                        <path d="M27.118584,10.9886364 C27.1868928,10.9431818 27.2552016,10.8977273 27.3235104,10.8522727"></path>
                        <path d="M31.8546592,10.9772727 C32.8223668,11.6022727 33.6193025,12.6022727 34.0291552,13.8522727 L34.1088488,14.1022727 C34.2568511,14.6022727 33.983616,15.125 33.482685,15.2840909 L31.5700393,15.8977273" stroke="#F15B29" stroke-width="1.45454545"></path>
                        <path d="M27.118584,10.9886364 C27.5512063,11.0454545 27.9952133,11.0227273 28.4392204,10.875 C29.9875526,10.375 30.8300275,8.72727273 30.3290965,7.18181818 C29.8281655,5.63636364 28.1773701,4.79545455 26.6290378,5.29545455 C25.0807056,5.79545455 24.2382307,7.44318182 24.7391617,8.98863636 C25.0920903,10.0909091 26.0370284,10.8409091 27.118584,10.9886364" stroke="#F15B29" stroke-width="1.45454545"></path>
                        <path d="M41.8960492,26.4545455 L41.8960492,17.7272727 C41.8960492,16.7272727 41.0763439,15.9090909 40.0744819,15.9090909 L38.4236864,15.9090909 L31.5700393,15.9090909 L25.1603991,15.9090909 L10.212162,15.9090909 L4.70192074,15.9090909 L3.64313472,15.9090909 C1.62802583,15.9090909 0,17.5340909 0,19.5454545 L0,41.3636364 C0,43.375 1.62802583,45 3.64313472,45 L40.0744819,45 C41.0763439,45 41.8960492,44.1818182 41.8960492,43.1818182 L41.8960492,33.7272727" stroke="#A30C5B" stroke-width="1.45454545" fill="#FFFFFF"></path>
                        <path d="M41.8960492,33.7272727 L42.078206,33.7272727 C43.080068,33.7272727 43.8997733,32.9090909 43.8997733,31.9090909 L43.8997733,28.2727273 C43.8997733,27.2727273 43.080068,26.4545455 42.078206,26.4545455 L41.8960492,26.4545455" stroke="#A30C5B" stroke-width="1.45454545" fill="#FFFFFF"></path>
                        <path d="M41.8960492,26.4545455 L34.0633096,26.4545455 C33.0614475,26.4545455 32.2417422,27.2727273 32.2417422,28.2727273 L32.2417422,31.9090909 C32.2417422,32.9090909 33.0614475,33.7272727 34.0633096,33.7272727 L41.8960492,33.7272727" stroke="#A30C5B" stroke-width="1.45454545"></path>
                    </g>
                </g>
            </g>
        </g>
    </g>
</svg>